<svg width="141" height="150" viewBox="0 0 141 150" fill="none" xmlns="http://www.w3.org/2000/svg">
<g filter="url(#filter0_b_404_3)">
<rect x="64.957" y="0.0010376" width="57.2581" height="57.2057" rx="12" transform="rotate(89.9967 64.957 0.0010376)" fill="url(#paint0_linear_404_3)"/>
</g>
<g filter="url(#filter1_b_404_3)">
<rect y="8.87201" width="141" height="141.129" rx="12" fill="url(#paint1_linear_404_3)"/>
</g>
<path d="M26.315 120.09C25.515 120.09 24.775 119.96 24.095 119.7C23.425 119.43 22.84 119.055 22.34 118.575C21.85 118.095 21.465 117.53 21.185 116.88C20.915 116.23 20.78 115.52 20.78 114.75C20.78 113.98 20.915 113.27 21.185 112.62C21.465 111.97 21.855 111.405 22.355 110.925C22.855 110.445 23.44 110.075 24.11 109.815C24.79 109.545 25.53 109.41 26.33 109.41C27.13 109.41 27.86 109.535 28.52 109.785C29.19 110.035 29.76 110.415 30.23 110.925L29.54 111.63C29.1 111.19 28.615 110.875 28.085 110.685C27.555 110.495 26.985 110.4 26.375 110.4C25.725 110.4 25.125 110.51 24.575 110.73C24.035 110.94 23.56 111.245 23.15 111.645C22.75 112.035 22.435 112.495 22.205 113.025C21.985 113.545 21.875 114.12 21.875 114.75C21.875 115.37 21.985 115.945 22.205 116.475C22.435 117.005 22.75 117.47 23.15 117.87C23.56 118.26 24.035 118.565 24.575 118.785C25.125 118.995 25.72 119.1 26.36 119.1C26.96 119.1 27.525 119.01 28.055 118.83C28.595 118.65 29.09 118.345 29.54 117.915L30.17 118.755C29.67 119.195 29.085 119.53 28.415 119.76C27.745 119.98 27.045 120.09 26.315 120.09ZM29.105 118.62V114.75H30.17V118.755L29.105 118.62ZM36.2966 120.075C35.5366 120.075 34.8516 119.905 34.2416 119.565C33.6416 119.215 33.1666 118.74 32.8166 118.14C32.4666 117.53 32.2916 116.835 32.2916 116.055C32.2916 115.265 32.4666 114.57 32.8166 113.97C33.1666 113.37 33.6416 112.9 34.2416 112.56C34.8416 112.22 35.5266 112.05 36.2966 112.05C37.0766 112.05 37.7666 112.22 38.3666 112.56C38.9766 112.9 39.4516 113.37 39.7916 113.97C40.1416 114.57 40.3166 115.265 40.3166 116.055C40.3166 116.835 40.1416 117.53 39.7916 118.14C39.4516 118.74 38.9766 119.215 38.3666 119.565C37.7566 119.905 37.0666 120.075 36.2966 120.075ZM36.2966 119.13C36.8666 119.13 37.3716 119.005 37.8116 118.755C38.2516 118.495 38.5966 118.135 38.8466 117.675C39.1066 117.205 39.2366 116.665 39.2366 116.055C39.2366 115.435 39.1066 114.895 38.8466 114.435C38.5966 113.975 38.2516 113.62 37.8116 113.37C37.3716 113.11 36.8716 112.98 36.3116 112.98C35.7516 112.98 35.2516 113.11 34.8116 113.37C34.3716 113.62 34.0216 113.975 33.7616 114.435C33.5016 114.895 33.3716 115.435 33.3716 116.055C33.3716 116.665 33.5016 117.205 33.7616 117.675C34.0216 118.135 34.3716 118.495 34.8116 118.755C35.2516 119.005 35.7466 119.13 36.2966 119.13ZM45.7009 120.075C44.9409 120.075 44.2559 119.905 43.6459 119.565C43.0459 119.215 42.5709 118.74 42.2209 118.14C41.8709 117.53 41.6959 116.835 41.6959 116.055C41.6959 115.265 41.8709 114.57 42.2209 113.97C42.5709 113.37 43.0459 112.9 43.6459 112.56C44.2459 112.22 44.9309 112.05 45.7009 112.05C46.4809 112.05 47.1709 112.22 47.7709 112.56C48.3809 112.9 48.8559 113.37 49.1959 113.97C49.5459 114.57 49.7209 115.265 49.7209 116.055C49.7209 116.835 49.5459 117.53 49.1959 118.14C48.8559 118.74 48.3809 119.215 47.7709 119.565C47.1609 119.905 46.4709 120.075 45.7009 120.075ZM45.7009 119.13C46.2709 119.13 46.7759 119.005 47.2159 118.755C47.6559 118.495 48.0009 118.135 48.2509 117.675C48.5109 117.205 48.6409 116.665 48.6409 116.055C48.6409 115.435 48.5109 114.895 48.2509 114.435C48.0009 113.975 47.6559 113.62 47.2159 113.37C46.7759 113.11 46.2759 112.98 45.7159 112.98C45.1559 112.98 44.6559 113.11 44.2159 113.37C43.7759 113.62 43.4259 113.975 43.1659 114.435C42.9059 114.895 42.7759 115.435 42.7759 116.055C42.7759 116.665 42.9059 117.205 43.1659 117.675C43.4259 118.135 43.7759 118.495 44.2159 118.755C44.6559 119.005 45.1509 119.13 45.7009 119.13ZM55.2552 122.985C54.5352 122.985 53.8452 122.88 53.1852 122.67C52.5252 122.46 51.9902 122.16 51.5802 121.77L52.1202 120.96C52.4902 121.29 52.9452 121.55 53.4852 121.74C54.0352 121.94 54.6152 122.04 55.2252 122.04C56.2252 122.04 56.9602 121.805 57.4302 121.335C57.9002 120.875 58.1352 120.155 58.1352 119.175V117.21L58.2852 115.86L58.1802 114.51V112.125H59.2002V119.04C59.2002 120.4 58.8652 121.395 58.1952 122.025C57.5352 122.665 56.5552 122.985 55.2552 122.985ZM55.0602 119.7C54.3102 119.7 53.6352 119.54 53.0352 119.22C52.4352 118.89 51.9602 118.435 51.6102 117.855C51.2702 117.275 51.1002 116.61 51.1002 115.86C51.1002 115.11 51.2702 114.45 51.6102 113.88C51.9602 113.3 52.4352 112.85 53.0352 112.53C53.6352 112.21 54.3102 112.05 55.0602 112.05C55.7602 112.05 56.3902 112.195 56.9502 112.485C57.5102 112.775 57.9552 113.205 58.2852 113.775C58.6152 114.345 58.7802 115.04 58.7802 115.86C58.7802 116.68 58.6152 117.375 58.2852 117.945C57.9552 118.515 57.5102 118.95 56.9502 119.25C56.3902 119.55 55.7602 119.7 55.0602 119.7ZM55.1652 118.755C55.7452 118.755 56.2602 118.635 56.7102 118.395C57.1602 118.145 57.5152 117.805 57.7752 117.375C58.0352 116.935 58.1652 116.43 58.1652 115.86C58.1652 115.29 58.0352 114.79 57.7752 114.36C57.5152 113.93 57.1602 113.595 56.7102 113.355C56.2602 113.105 55.7452 112.98 55.1652 112.98C54.5952 112.98 54.0802 113.105 53.6202 113.355C53.1702 113.595 52.8152 113.93 52.5552 114.36C52.3052 114.79 52.1802 115.29 52.1802 115.86C52.1802 116.43 52.3052 116.935 52.5552 117.375C52.8152 117.805 53.1702 118.145 53.6202 118.395C54.0802 118.635 54.5952 118.755 55.1652 118.755ZM62.1637 120V108.87H63.2287V120H62.1637ZM69.537 120.075C68.717 120.075 67.997 119.905 67.377 119.565C66.757 119.215 66.272 118.74 65.922 118.14C65.572 117.53 65.397 116.835 65.397 116.055C65.397 115.275 65.562 114.585 65.892 113.985C66.232 113.385 66.692 112.915 67.272 112.575C67.862 112.225 68.522 112.05 69.252 112.05C69.992 112.05 70.647 112.22 71.217 112.56C71.797 112.89 72.252 113.36 72.582 113.97C72.912 114.57 73.077 115.265 73.077 116.055C73.077 116.105 73.072 116.16 73.062 116.22C73.062 116.27 73.062 116.325 73.062 116.385H66.207V115.59H72.492L72.072 115.905C72.072 115.335 71.947 114.83 71.697 114.39C71.457 113.94 71.127 113.59 70.707 113.34C70.287 113.09 69.802 112.965 69.252 112.965C68.712 112.965 68.227 113.09 67.797 113.34C67.367 113.59 67.032 113.94 66.792 114.39C66.552 114.84 66.432 115.355 66.432 115.935V116.1C66.432 116.7 66.562 117.23 66.822 117.69C67.092 118.14 67.462 118.495 67.932 118.755C68.412 119.005 68.957 119.13 69.567 119.13C70.047 119.13 70.492 119.045 70.902 118.875C71.322 118.705 71.682 118.445 71.982 118.095L72.582 118.785C72.232 119.205 71.792 119.525 71.262 119.745C70.742 119.965 70.167 120.075 69.537 120.075ZM83.9555 120.09C83.1655 120.09 82.4355 119.96 81.7655 119.7C81.0955 119.43 80.5155 119.055 80.0255 118.575C79.5355 118.095 79.1505 117.53 78.8705 116.88C78.6005 116.23 78.4655 115.52 78.4655 114.75C78.4655 113.98 78.6005 113.27 78.8705 112.62C79.1505 111.97 79.5355 111.405 80.0255 110.925C80.5255 110.445 81.1105 110.075 81.7805 109.815C82.4505 109.545 83.1805 109.41 83.9705 109.41C84.7305 109.41 85.4455 109.54 86.1155 109.8C86.7855 110.05 87.3505 110.43 87.8105 110.94L87.1055 111.645C86.6755 111.205 86.2005 110.89 85.6805 110.7C85.1605 110.5 84.6005 110.4 84.0005 110.4C83.3705 110.4 82.7855 110.51 82.2455 110.73C81.7055 110.94 81.2355 111.245 80.8355 111.645C80.4355 112.035 80.1205 112.495 79.8905 113.025C79.6705 113.545 79.5605 114.12 79.5605 114.75C79.5605 115.38 79.6705 115.96 79.8905 116.49C80.1205 117.01 80.4355 117.47 80.8355 117.87C81.2355 118.26 81.7055 118.565 82.2455 118.785C82.7855 118.995 83.3705 119.1 84.0005 119.1C84.6005 119.1 85.1605 119 85.6805 118.8C86.2005 118.6 86.6755 118.28 87.1055 117.84L87.8105 118.545C87.3505 119.055 86.7855 119.44 86.1155 119.7C85.4455 119.96 84.7255 120.09 83.9555 120.09ZM89.9518 120V108.87H91.0168V120H89.9518ZM97.1901 120.075C96.4301 120.075 95.7451 119.905 95.1351 119.565C94.5351 119.215 94.0601 118.74 93.7101 118.14C93.3601 117.53 93.1851 116.835 93.1851 116.055C93.1851 115.265 93.3601 114.57 93.7101 113.97C94.0601 113.37 94.5351 112.9 95.1351 112.56C95.7351 112.22 96.4201 112.05 97.1901 112.05C97.9701 112.05 98.6601 112.22 99.2601 112.56C99.8701 112.9 100.345 113.37 100.685 113.97C101.035 114.57 101.21 115.265 101.21 116.055C101.21 116.835 101.035 117.53 100.685 118.14C100.345 118.74 99.8701 119.215 99.2601 119.565C98.6501 119.905 97.9601 120.075 97.1901 120.075ZM97.1901 119.13C97.7601 119.13 98.2651 119.005 98.7051 118.755C99.1451 118.495 99.4901 118.135 99.7401 117.675C100 117.205 100.13 116.665 100.13 116.055C100.13 115.435 100 114.895 99.7401 114.435C99.4901 113.975 99.1451 113.62 98.7051 113.37C98.2651 113.11 97.7651 112.98 97.2051 112.98C96.6451 112.98 96.1451 113.11 95.7051 113.37C95.2651 113.62 94.9151 113.975 94.6551 114.435C94.3951 114.895 94.2651 115.435 94.2651 116.055C94.2651 116.665 94.3951 117.205 94.6551 117.675C94.9151 118.135 95.2651 118.495 95.7051 118.755C96.1451 119.005 96.6401 119.13 97.1901 119.13ZM106.639 120.075C105.969 120.075 105.384 119.95 104.884 119.7C104.384 119.45 103.994 119.075 103.714 118.575C103.444 118.075 103.309 117.45 103.309 116.7V112.125H104.374V116.58C104.374 117.42 104.579 118.055 104.989 118.485C105.409 118.905 105.994 119.115 106.744 119.115C107.294 119.115 107.769 119.005 108.169 118.785C108.579 118.555 108.889 118.225 109.099 117.795C109.319 117.365 109.429 116.85 109.429 116.25V112.125H110.494V120H109.474V117.84L109.639 118.23C109.389 118.81 108.999 119.265 108.469 119.595C107.949 119.915 107.339 120.075 106.639 120.075ZM116.598 120.075C115.848 120.075 115.173 119.905 114.573 119.565C113.983 119.225 113.518 118.755 113.178 118.155C112.838 117.545 112.668 116.845 112.668 116.055C112.668 115.255 112.838 114.555 113.178 113.955C113.518 113.355 113.983 112.89 114.573 112.56C115.173 112.22 115.848 112.05 116.598 112.05C117.288 112.05 117.903 112.205 118.443 112.515C118.993 112.825 119.428 113.28 119.748 113.88C120.078 114.47 120.243 115.195 120.243 116.055C120.243 116.905 120.083 117.63 119.763 118.23C119.443 118.83 119.008 119.29 118.458 119.61C117.918 119.92 117.298 120.075 116.598 120.075ZM116.673 119.13C117.233 119.13 117.733 119.005 118.173 118.755C118.623 118.495 118.973 118.135 119.223 117.675C119.483 117.205 119.613 116.665 119.613 116.055C119.613 115.435 119.483 114.895 119.223 114.435C118.973 113.975 118.623 113.62 118.173 113.37C117.733 113.11 117.233 112.98 116.673 112.98C116.123 112.98 115.628 113.11 115.188 113.37C114.748 113.62 114.398 113.975 114.138 114.435C113.878 114.895 113.748 115.435 113.748 116.055C113.748 116.665 113.878 117.205 114.138 117.675C114.398 118.135 114.748 118.495 115.188 118.755C115.628 119.005 116.123 119.13 116.673 119.13ZM119.643 120V117.63L119.748 116.04L119.598 114.45V108.87H120.663V120H119.643Z" fill="white"/>
<path d="M95 94.2286H48.0341C45.2594 94.2286 43.0153 91.9693 43.0342 89.1946L43.2869 51.9661C43.3056 49.2179 45.5386 47 48.2868 47H62.6438C64.1277 47 65.535 47.6591 66.4849 48.7991L67.5579 50.0866C68.5079 51.2266 69.9151 51.8857 71.399 51.8857H95C97.7614 51.8857 100 54.1243 100 56.8857V89.2286C100 91.99 97.7614 94.2286 95 94.2286Z" stroke="white" stroke-opacity="0.6" stroke-width="3"/>
<path d="M77.2 70.4286V61.0286C77.2 60.4763 77.6477 60.0286 78.2 60.0286H84.3428C84.8951 60.0286 85.3428 60.4763 85.3428 61.0286V70.4286C85.3428 70.9808 85.7906 71.4286 86.3428 71.4286H91.5425C92.3559 71.4286 92.829 72.3479 92.3562 73.0098L82.0851 87.3893C81.6863 87.9477 80.8565 87.9477 80.4577 87.3893L70.1866 73.0098C69.7138 72.3479 70.1869 71.4286 71.0003 71.4286H76.2C76.7523 71.4286 77.2 70.9808 77.2 70.4286Z" stroke="white" stroke-opacity="0.6" stroke-width="3"/>
<defs>
<filter id="filter0_b_404_3" x="-0.247925" y="-7.99826" width="73.2076" height="73.26" filterUnits="userSpaceOnUse" color-interpolation-filters="sRGB">
<feFlood flood-opacity="0" result="BackgroundImageFix"/>
<feGaussianBlur in="BackgroundImageFix" stdDeviation="4"/>
<feComposite in2="SourceAlpha" operator="in" result="effect1_backgroundBlur_404_3"/>
<feBlend mode="normal" in="SourceGraphic" in2="effect1_backgroundBlur_404_3" result="shape"/>
</filter>
<filter id="filter1_b_404_3" x="-8" y="0.872009" width="157" height="157.129" filterUnits="userSpaceOnUse" color-interpolation-filters="sRGB">
<feFlood flood-opacity="0" result="BackgroundImageFix"/>
<feGaussianBlur in="BackgroundImageFix" stdDeviation="4"/>
<feComposite in2="SourceAlpha" operator="in" result="effect1_backgroundBlur_404_3"/>
<feBlend mode="normal" in="SourceGraphic" in2="effect1_backgroundBlur_404_3" result="shape"/>
</filter>
<linearGradient id="paint0_linear_404_3" x1="93.7497" y1="57.2067" x2="93.7497" y2="0.00103755" gradientUnits="userSpaceOnUse">
<stop stop-color="#059DC0"/>
<stop offset="1" stop-color="#00ECFF"/>
</linearGradient>
<linearGradient id="paint1_linear_404_3" x1="70.9029" y1="150.001" x2="70.9029" y2="8.87201" gradientUnits="userSpaceOnUse">
<stop stop-color="#059DC0"/>
<stop offset="1" stop-color="#00ECFF"/>
</linearGradient>
</defs>
</svg>
