<svg width="141" height="150" viewBox="0 0 141 150" fill="none" xmlns="http://www.w3.org/2000/svg">
<g filter="url(#filter0_b_404_4)">
<rect x="64.7628" y="0.0020752" width="57.2581" height="57.2057" rx="12" transform="rotate(89.9967 64.7628 0.0020752)" fill="url(#paint0_linear_404_4)"/>
</g>
<g filter="url(#filter1_b_404_4)">
<rect y="8.87305" width="141" height="141.129" rx="12" fill="url(#paint1_linear_404_4)"/>
</g>
<path d="M42.71 120V109.5H46.64C47.53 109.5 48.295 109.645 48.935 109.935C49.575 110.215 50.065 110.625 50.405 111.165C50.755 111.695 50.93 112.34 50.93 113.1C50.93 113.84 50.755 114.48 50.405 115.02C50.065 115.55 49.575 115.96 48.935 116.25C48.295 116.54 47.53 116.685 46.64 116.685H43.325L43.82 116.16V120H42.71ZM43.82 116.25L43.325 115.71H46.61C47.66 115.71 48.455 115.485 48.995 115.035C49.545 114.575 49.82 113.93 49.82 113.1C49.82 112.26 49.545 111.61 48.995 111.15C48.455 110.69 47.66 110.46 46.61 110.46H43.325L43.82 109.935V116.25ZM53.2516 120V108.87H54.3166V120H53.2516ZM62.2149 120V118.26L62.1699 117.975V115.065C62.1699 114.395 61.9799 113.88 61.5999 113.52C61.2299 113.16 60.6749 112.98 59.9349 112.98C59.4249 112.98 58.9399 113.065 58.4799 113.235C58.0199 113.405 57.6299 113.63 57.3099 113.91L56.8299 113.115C57.2299 112.775 57.7099 112.515 58.2699 112.335C58.8299 112.145 59.4199 112.05 60.0399 112.05C61.0599 112.05 61.8449 112.305 62.3949 112.815C62.9549 113.315 63.2349 114.08 63.2349 115.11V120H62.2149ZM59.4999 120.075C58.9099 120.075 58.3949 119.98 57.9549 119.79C57.5249 119.59 57.1949 119.32 56.9649 118.98C56.7349 118.63 56.6199 118.23 56.6199 117.78C56.6199 117.37 56.7149 117 56.9049 116.67C57.1049 116.33 57.4249 116.06 57.8649 115.86C58.3149 115.65 58.9149 115.545 59.6649 115.545H62.3799V116.34H59.6949C58.9349 116.34 58.4049 116.475 58.1049 116.745C57.8149 117.015 57.6699 117.35 57.6699 117.75C57.6699 118.2 57.8449 118.56 58.1949 118.83C58.5449 119.1 59.0349 119.235 59.6649 119.235C60.2649 119.235 60.7799 119.1 61.2099 118.83C61.6499 118.55 61.9699 118.15 62.1699 117.63L62.4099 118.365C62.2099 118.885 61.8599 119.3 61.3599 119.61C60.8699 119.92 60.2499 120.075 59.4999 120.075ZM66.0411 122.985C65.6711 122.985 65.3161 122.925 64.9761 122.805C64.6461 122.685 64.3611 122.505 64.1211 122.265L64.6161 121.47C64.8161 121.66 65.0311 121.805 65.2611 121.905C65.5011 122.015 65.7661 122.07 66.0561 122.07C66.4061 122.07 66.7061 121.97 66.9561 121.77C67.2161 121.58 67.4611 121.24 67.6911 120.75L68.2011 119.595L68.3211 119.43L71.5611 112.125H72.6111L68.6661 120.945C68.4461 121.455 68.2011 121.86 67.9311 122.16C67.6711 122.46 67.3861 122.67 67.0761 122.79C66.7661 122.92 66.4211 122.985 66.0411 122.985ZM68.1411 120.225L64.5111 112.125H65.6211L68.8311 119.355L68.1411 120.225ZM78.2618 120V109.5H79.3718V119.04H85.2518V120H78.2618ZM86.8698 120V112.125H87.9348V120H86.8698ZM87.4098 110.385C87.1898 110.385 87.0048 110.31 86.8548 110.16C86.7048 110.01 86.6298 109.83 86.6298 109.62C86.6298 109.41 86.7048 109.235 86.8548 109.095C87.0048 108.945 87.1898 108.87 87.4098 108.87C87.6298 108.87 87.8148 108.94 87.9648 109.08C88.1148 109.22 88.1898 109.395 88.1898 109.605C88.1898 109.825 88.1148 110.01 87.9648 110.16C87.8248 110.31 87.6398 110.385 87.4098 110.385ZM93.0131 120.075C92.3631 120.075 91.7481 119.985 91.1681 119.805C90.5881 119.615 90.1331 119.38 89.8031 119.1L90.2831 118.26C90.6031 118.5 91.0131 118.71 91.5131 118.89C92.0131 119.06 92.5381 119.145 93.0881 119.145C93.8381 119.145 94.3781 119.03 94.7081 118.8C95.0381 118.56 95.2031 118.245 95.2031 117.855C95.2031 117.565 95.1081 117.34 94.9181 117.18C94.7381 117.01 94.4981 116.885 94.1981 116.805C93.8981 116.715 93.5631 116.64 93.1931 116.58C92.8231 116.52 92.4531 116.45 92.0831 116.37C91.7231 116.29 91.3931 116.175 91.0931 116.025C90.7931 115.865 90.5481 115.65 90.3581 115.38C90.1781 115.11 90.0881 114.75 90.0881 114.3C90.0881 113.87 90.2081 113.485 90.4481 113.145C90.6881 112.805 91.0381 112.54 91.4981 112.35C91.9681 112.15 92.5381 112.05 93.2081 112.05C93.7181 112.05 94.2281 112.12 94.7381 112.26C95.2481 112.39 95.6681 112.565 95.9981 112.785L95.5331 113.64C95.1831 113.4 94.8081 113.23 94.4081 113.13C94.0081 113.02 93.6081 112.965 93.2081 112.965C92.4981 112.965 91.9731 113.09 91.6331 113.34C91.3031 113.58 91.1381 113.89 91.1381 114.27C91.1381 114.57 91.2281 114.805 91.4081 114.975C91.5981 115.145 91.8431 115.28 92.1431 115.38C92.4531 115.47 92.7881 115.545 93.1481 115.605C93.5181 115.665 93.8831 115.74 94.2431 115.83C94.6131 115.91 94.9481 116.025 95.2481 116.175C95.5581 116.315 95.8031 116.52 95.9831 116.79C96.1731 117.05 96.2681 117.395 96.2681 117.825C96.2681 118.285 96.1381 118.685 95.8781 119.025C95.6281 119.355 95.2581 119.615 94.7681 119.805C94.2881 119.985 93.7031 120.075 93.0131 120.075ZM100.712 120.075C99.9723 120.075 99.4023 119.875 99.0023 119.475C98.6023 119.075 98.4023 118.51 98.4023 117.78V110.385H99.4673V117.72C99.4673 118.18 99.5823 118.535 99.8123 118.785C100.052 119.035 100.392 119.16 100.832 119.16C101.302 119.16 101.692 119.025 102.002 118.755L102.377 119.52C102.167 119.71 101.912 119.85 101.612 119.94C101.322 120.03 101.022 120.075 100.712 120.075ZM96.9923 113.01V112.125H101.867V113.01H96.9923Z" fill="white"/>
<path d="M45 59H71" stroke="white" stroke-opacity="0.6" stroke-width="5" stroke-linecap="round"/>
<path d="M45 74H92" stroke="white" stroke-opacity="0.6" stroke-width="5" stroke-linecap="round"/>
<path d="M45 89H92" stroke="white" stroke-opacity="0.6" stroke-width="5" stroke-linecap="round"/>
<path d="M81 59.7321C79.6667 58.9623 79.6667 57.0377 81 56.2679L90 51.0718C91.3333 50.302 93 51.2642 93 52.8038V63.1962C93 64.7358 91.3333 65.698 90 64.9282L81 59.7321Z" fill="white" fill-opacity="0.6"/>
<defs>
<filter id="filter0_b_404_4" x="-0.4422" y="-7.99722" width="73.2076" height="73.26" filterUnits="userSpaceOnUse" color-interpolation-filters="sRGB">
<feFlood flood-opacity="0" result="BackgroundImageFix"/>
<feGaussianBlur in="BackgroundImageFix" stdDeviation="4"/>
<feComposite in2="SourceAlpha" operator="in" result="effect1_backgroundBlur_404_4"/>
<feBlend mode="normal" in="SourceGraphic" in2="effect1_backgroundBlur_404_4" result="shape"/>
</filter>
<filter id="filter1_b_404_4" x="-8" y="0.873047" width="157" height="157.129" filterUnits="userSpaceOnUse" color-interpolation-filters="sRGB">
<feFlood flood-opacity="0" result="BackgroundImageFix"/>
<feGaussianBlur in="BackgroundImageFix" stdDeviation="4"/>
<feComposite in2="SourceAlpha" operator="in" result="effect1_backgroundBlur_404_4"/>
<feBlend mode="normal" in="SourceGraphic" in2="effect1_backgroundBlur_404_4" result="shape"/>
</filter>
<linearGradient id="paint0_linear_404_4" x1="93.5554" y1="57.2078" x2="93.5554" y2="0.00207515" gradientUnits="userSpaceOnUse">
<stop stop-color="#059DC0"/>
<stop offset="1" stop-color="#00ECFF"/>
</linearGradient>
<linearGradient id="paint1_linear_404_4" x1="70.9029" y1="150.002" x2="70.9029" y2="8.87305" gradientUnits="userSpaceOnUse">
<stop stop-color="#059DC0"/>
<stop offset="1" stop-color="#00ECFF"/>
</linearGradient>
</defs>
</svg>
