<svg width="141" height="150" viewBox="0 0 141 150" fill="none" xmlns="http://www.w3.org/2000/svg">
<g filter="url(#filter0_b_404_5)">
<rect x="64.7629" y="0.0020752" width="57.2581" height="57.2057" rx="12" transform="rotate(89.9967 64.7629 0.0020752)" fill="url(#paint0_linear_404_5)"/>
</g>
<g filter="url(#filter1_b_404_5)">
<rect y="8.87305" width="141" height="141.129" rx="12" fill="url(#paint1_linear_404_5)"/>
</g>
<path d="M51.605 116.09C50.825 116.09 50.075 115.965 49.355 115.715C48.645 115.455 48.095 115.125 47.705 114.725L48.14 113.87C48.51 114.23 49.005 114.535 49.625 114.785C50.255 115.025 50.915 115.145 51.605 115.145C52.265 115.145 52.8 115.065 53.21 114.905C53.63 114.735 53.935 114.51 54.125 114.23C54.325 113.95 54.425 113.64 54.425 113.3C54.425 112.89 54.305 112.56 54.065 112.31C53.835 112.06 53.53 111.865 53.15 111.725C52.77 111.575 52.35 111.445 51.89 111.335C51.43 111.225 50.97 111.11 50.51 110.99C50.05 110.86 49.625 110.69 49.235 110.48C48.855 110.27 48.545 109.995 48.305 109.655C48.075 109.305 47.96 108.85 47.96 108.29C47.96 107.77 48.095 107.295 48.365 106.865C48.645 106.425 49.07 106.075 49.64 105.815C50.21 105.545 50.94 105.41 51.83 105.41C52.42 105.41 53.005 105.495 53.585 105.665C54.165 105.825 54.665 106.05 55.085 106.34L54.71 107.225C54.26 106.925 53.78 106.705 53.27 106.565C52.77 106.425 52.285 106.355 51.815 106.355C51.185 106.355 50.665 106.44 50.255 106.61C49.845 106.78 49.54 107.01 49.34 107.3C49.15 107.58 49.055 107.9 49.055 108.26C49.055 108.67 49.17 109 49.4 109.25C49.64 109.5 49.95 109.695 50.33 109.835C50.72 109.975 51.145 110.1 51.605 110.21C52.065 110.32 52.52 110.44 52.97 110.57C53.43 110.7 53.85 110.87 54.23 111.08C54.62 111.28 54.93 111.55 55.16 111.89C55.4 112.23 55.52 112.675 55.52 113.225C55.52 113.735 55.38 114.21 55.1 114.65C54.82 115.08 54.39 115.43 53.81 115.7C53.24 115.96 52.505 116.09 51.605 116.09ZM61.7785 116.075C61.0985 116.075 60.4835 115.92 59.9335 115.61C59.3835 115.29 58.9435 114.835 58.6135 114.245C58.2935 113.645 58.1335 112.915 58.1335 112.055C58.1335 111.195 58.2935 110.47 58.6135 109.88C58.9335 109.28 59.3685 108.825 59.9185 108.515C60.4685 108.205 61.0885 108.05 61.7785 108.05C62.5285 108.05 63.1985 108.22 63.7885 108.56C64.3885 108.89 64.8585 109.36 65.1985 109.97C65.5385 110.57 65.7085 111.265 65.7085 112.055C65.7085 112.855 65.5385 113.555 65.1985 114.155C64.8585 114.755 64.3885 115.225 63.7885 115.565C63.1985 115.905 62.5285 116.075 61.7785 116.075ZM57.7135 118.91V108.125H58.7335V110.495L58.6285 112.07L58.7785 113.66V118.91H57.7135ZM61.7035 115.13C62.2635 115.13 62.7635 115.005 63.2035 114.755C63.6435 114.495 63.9935 114.135 64.2535 113.675C64.5135 113.205 64.6435 112.665 64.6435 112.055C64.6435 111.445 64.5135 110.91 64.2535 110.45C63.9935 109.99 63.6435 109.63 63.2035 109.37C62.7635 109.11 62.2635 108.98 61.7035 108.98C61.1435 108.98 60.6385 109.11 60.1885 109.37C59.7485 109.63 59.3985 109.99 59.1385 110.45C58.8885 110.91 58.7635 111.445 58.7635 112.055C58.7635 112.665 58.8885 113.205 59.1385 113.675C59.3985 114.135 59.7485 114.495 60.1885 114.755C60.6385 115.005 61.1435 115.13 61.7035 115.13ZM71.0895 116.075C70.3295 116.075 69.6445 115.905 69.0345 115.565C68.4345 115.215 67.9595 114.74 67.6095 114.14C67.2595 113.53 67.0845 112.835 67.0845 112.055C67.0845 111.265 67.2595 110.57 67.6095 109.97C67.9595 109.37 68.4345 108.9 69.0345 108.56C69.6345 108.22 70.3195 108.05 71.0895 108.05C71.8695 108.05 72.5595 108.22 73.1595 108.56C73.7695 108.9 74.2445 109.37 74.5845 109.97C74.9345 110.57 75.1095 111.265 75.1095 112.055C75.1095 112.835 74.9345 113.53 74.5845 114.14C74.2445 114.74 73.7695 115.215 73.1595 115.565C72.5495 115.905 71.8595 116.075 71.0895 116.075ZM71.0895 115.13C71.6595 115.13 72.1645 115.005 72.6045 114.755C73.0445 114.495 73.3895 114.135 73.6395 113.675C73.8995 113.205 74.0295 112.665 74.0295 112.055C74.0295 111.435 73.8995 110.895 73.6395 110.435C73.3895 109.975 73.0445 109.62 72.6045 109.37C72.1645 109.11 71.6645 108.98 71.1045 108.98C70.5445 108.98 70.0445 109.11 69.6045 109.37C69.1645 109.62 68.8145 109.975 68.5545 110.435C68.2945 110.895 68.1645 111.435 68.1645 112.055C68.1645 112.665 68.2945 113.205 68.5545 113.675C68.8145 114.135 69.1645 114.495 69.6045 114.755C70.0445 115.005 70.5395 115.13 71.0895 115.13ZM79.7738 116.075C79.0338 116.075 78.4638 115.875 78.0638 115.475C77.6638 115.075 77.4638 114.51 77.4638 113.78V106.385H78.5288V113.72C78.5288 114.18 78.6438 114.535 78.8738 114.785C79.1138 115.035 79.4538 115.16 79.8938 115.16C80.3638 115.16 80.7538 115.025 81.0638 114.755L81.4388 115.52C81.2288 115.71 80.9738 115.85 80.6738 115.94C80.3838 116.03 80.0838 116.075 79.7738 116.075ZM76.0538 109.01V108.125H80.9288V109.01H76.0538ZM83.3776 116V108.125H84.4426V116H83.3776ZM83.9176 106.385C83.6976 106.385 83.5126 106.31 83.3626 106.16C83.2126 106.01 83.1376 105.83 83.1376 105.62C83.1376 105.41 83.2126 105.235 83.3626 105.095C83.5126 104.945 83.6976 104.87 83.9176 104.87C84.1376 104.87 84.3226 104.94 84.4726 105.08C84.6226 105.22 84.6976 105.395 84.6976 105.605C84.6976 105.825 84.6226 106.01 84.4726 106.16C84.3326 106.31 84.1476 106.385 83.9176 106.385ZM87.5859 116V107.135C87.5859 106.435 87.7909 105.87 88.2009 105.44C88.6109 105.01 89.2009 104.795 89.9709 104.795C90.2709 104.795 90.5609 104.835 90.8409 104.915C91.1209 104.995 91.3559 105.12 91.5459 105.29L91.1859 106.085C91.0359 105.955 90.8609 105.86 90.6609 105.8C90.4609 105.73 90.2459 105.695 90.0159 105.695C89.5659 105.695 89.2209 105.82 88.9809 106.07C88.7409 106.32 88.6209 106.69 88.6209 107.18V108.38L88.6509 108.875V116H87.5859ZM86.1759 109.01V108.125H91.0509V109.01H86.1759ZM92.6954 118.985C92.3254 118.985 91.9704 118.925 91.6304 118.805C91.3004 118.685 91.0154 118.505 90.7754 118.265L91.2704 117.47C91.4704 117.66 91.6854 117.805 91.9154 117.905C92.1554 118.015 92.4204 118.07 92.7104 118.07C93.0604 118.07 93.3604 117.97 93.6104 117.77C93.8704 117.58 94.1154 117.24 94.3454 116.75L94.8554 115.595L94.9754 115.43L98.2154 108.125H99.2654L95.3204 116.945C95.1004 117.455 94.8554 117.86 94.5854 118.16C94.3254 118.46 94.0404 118.67 93.7304 118.79C93.4204 118.92 93.0754 118.985 92.6954 118.985ZM94.7954 116.225L91.1654 108.125H92.2754L95.4854 115.355L94.7954 116.225Z" fill="white"/>
<path d="M49 85.7396V45.7193C49 42.9579 51.2386 40.7193 54 40.7193H87C89.7614 40.7193 92 42.9579 92 45.7193V85.7396C92 89.5619 87.8853 91.9707 84.5523 90.0996L72.9477 83.5847C71.4275 82.7312 69.5725 82.7312 68.0523 83.5847L56.4477 90.0996C53.1147 91.9707 49 89.5619 49 85.7396Z" stroke="white" stroke-opacity="0.6" stroke-width="4"/>
<path d="M68.6839 53.3321C69.3987 51.7823 71.6013 51.7823 72.3161 53.3321L73.8622 56.684C74.1535 57.3156 74.7521 57.7505 75.4428 57.8324L79.1085 58.267C80.8033 58.468 81.4839 60.5627 80.2309 61.7215L77.5208 64.2277C77.0101 64.7 76.7815 65.4036 76.917 66.0859L77.6364 69.7064C77.969 71.3804 76.1871 72.675 74.6979 71.8414L71.4769 70.0384C70.8699 69.6987 70.13 69.6987 69.5231 70.0384L66.302 71.8414C64.8128 72.675 63.0309 71.3804 63.3635 69.7064L64.0829 66.0859C64.2185 65.4036 63.9898 64.7 63.4792 64.2277L60.769 61.7215C59.516 60.5627 60.1967 58.468 61.8915 58.267L65.5571 57.8324C66.2478 57.7505 66.8464 57.3156 67.1377 56.684L68.6839 53.3321Z" fill="white" fill-opacity="0.6"/>
<defs>
<filter id="filter0_b_404_5" x="-0.442139" y="-7.99722" width="73.2078" height="73.26" filterUnits="userSpaceOnUse" color-interpolation-filters="sRGB">
<feFlood flood-opacity="0" result="BackgroundImageFix"/>
<feGaussianBlur in="BackgroundImageFix" stdDeviation="4"/>
<feComposite in2="SourceAlpha" operator="in" result="effect1_backgroundBlur_404_5"/>
<feBlend mode="normal" in="SourceGraphic" in2="effect1_backgroundBlur_404_5" result="shape"/>
</filter>
<filter id="filter1_b_404_5" x="-8" y="0.873047" width="157" height="157.129" filterUnits="userSpaceOnUse" color-interpolation-filters="sRGB">
<feFlood flood-opacity="0" result="BackgroundImageFix"/>
<feGaussianBlur in="BackgroundImageFix" stdDeviation="4"/>
<feComposite in2="SourceAlpha" operator="in" result="effect1_backgroundBlur_404_5"/>
<feBlend mode="normal" in="SourceGraphic" in2="effect1_backgroundBlur_404_5" result="shape"/>
</filter>
<linearGradient id="paint0_linear_404_5" x1="93.5556" y1="57.2078" x2="93.5556" y2="0.00207515" gradientUnits="userSpaceOnUse">
<stop stop-color="#059DC0"/>
<stop offset="1" stop-color="#00ECFF"/>
</linearGradient>
<linearGradient id="paint1_linear_404_5" x1="70.9029" y1="150.002" x2="70.9029" y2="8.87305" gradientUnits="userSpaceOnUse">
<stop stop-color="#059DC0"/>
<stop offset="1" stop-color="#00ECFF"/>
</linearGradient>
</defs>
</svg>
