<svg width="141" height="150" viewBox="0 0 141 150" fill="none" xmlns="http://www.w3.org/2000/svg">
<g filter="url(#filter0_b_404_2)">
<rect x="64.7564" width="57.2582" height="57.2582" rx="12" transform="rotate(89.9967 64.7564 0)" fill="url(#paint0_linear_404_2)"/>
</g>
<g filter="url(#filter1_b_404_2)">
<rect y="8.87268" width="141" height="141.129" rx="12" fill="url(#paint1_linear_404_2)"/>
</g>
<path d="M46.215 120V116.1L46.47 116.79L42.015 109.5H43.2L47.115 115.905H46.485L50.4 109.5H51.51L47.055 116.79L47.31 116.1V120H46.215ZM55.3229 120.075C54.5629 120.075 53.8779 119.905 53.2679 119.565C52.6679 119.215 52.1929 118.74 51.8429 118.14C51.4929 117.53 51.3179 116.835 51.3179 116.055C51.3179 115.265 51.4929 114.57 51.8429 113.97C52.1929 113.37 52.6679 112.9 53.2679 112.56C53.8679 112.22 54.5529 112.05 55.3229 112.05C56.1029 112.05 56.7929 112.22 57.3929 112.56C58.0029 112.9 58.4779 113.37 58.8179 113.97C59.1679 114.57 59.3429 115.265 59.3429 116.055C59.3429 116.835 59.1679 117.53 58.8179 118.14C58.4779 118.74 58.0029 119.215 57.3929 119.565C56.7829 119.905 56.0929 120.075 55.3229 120.075ZM55.3229 119.13C55.8929 119.13 56.3979 119.005 56.8379 118.755C57.2779 118.495 57.6229 118.135 57.8729 117.675C58.1329 117.205 58.2629 116.665 58.2629 116.055C58.2629 115.435 58.1329 114.895 57.8729 114.435C57.6229 113.975 57.2779 113.62 56.8379 113.37C56.3979 113.11 55.8979 112.98 55.3379 112.98C54.7779 112.98 54.2779 113.11 53.8379 113.37C53.3979 113.62 53.0479 113.975 52.7879 114.435C52.5279 114.895 52.3979 115.435 52.3979 116.055C52.3979 116.665 52.5279 117.205 52.7879 117.675C53.0479 118.135 53.3979 118.495 53.8379 118.755C54.2779 119.005 54.7729 119.13 55.3229 119.13ZM64.7722 120.075C64.1022 120.075 63.5172 119.95 63.0172 119.7C62.5172 119.45 62.1272 119.075 61.8472 118.575C61.5772 118.075 61.4422 117.45 61.4422 116.7V112.125H62.5072V116.58C62.5072 117.42 62.7122 118.055 63.1222 118.485C63.5422 118.905 64.1272 119.115 64.8772 119.115C65.4272 119.115 65.9022 119.005 66.3022 118.785C66.7122 118.555 67.0222 118.225 67.2322 117.795C67.4522 117.365 67.5622 116.85 67.5622 116.25V112.125H68.6272V120H67.6072V117.84L67.7722 118.23C67.5222 118.81 67.1322 119.265 66.6022 119.595C66.0822 119.915 65.4722 120.075 64.7722 120.075ZM74.0854 120.075C73.3454 120.075 72.7754 119.875 72.3754 119.475C71.9754 119.075 71.7754 118.51 71.7754 117.78V110.385H72.8404V117.72C72.8404 118.18 72.9554 118.535 73.1854 118.785C73.4254 119.035 73.7654 119.16 74.2054 119.16C74.6754 119.16 75.0654 119.025 75.3754 118.755L75.7504 119.52C75.5404 119.71 75.2854 119.85 74.9854 119.94C74.6954 120.03 74.3954 120.075 74.0854 120.075ZM70.3654 113.01V112.125H75.2404V113.01H70.3654ZM80.9441 120.075C80.2741 120.075 79.6891 119.95 79.1891 119.7C78.6891 119.45 78.2991 119.075 78.0191 118.575C77.7491 118.075 77.6141 117.45 77.6141 116.7V112.125H78.6791V116.58C78.6791 117.42 78.8841 118.055 79.2941 118.485C79.7141 118.905 80.2991 119.115 81.0491 119.115C81.5991 119.115 82.0741 119.005 82.4741 118.785C82.8841 118.555 83.1941 118.225 83.4041 117.795C83.6241 117.365 83.7341 116.85 83.7341 116.25V112.125H84.7991V120H83.7791V117.84L83.9441 118.23C83.6941 118.81 83.3041 119.265 82.7741 119.595C82.2541 119.915 81.6441 120.075 80.9441 120.075ZM91.8322 120.075C91.1422 120.075 90.5222 119.92 89.9722 119.61C89.4222 119.29 88.9872 118.83 88.6672 118.23C88.3472 117.63 88.1872 116.905 88.1872 116.055C88.1872 115.195 88.3472 114.47 88.6672 113.88C88.9972 113.28 89.4372 112.825 89.9872 112.515C90.5372 112.205 91.1522 112.05 91.8322 112.05C92.5822 112.05 93.2522 112.22 93.8422 112.56C94.4422 112.89 94.9122 113.355 95.2522 113.955C95.5922 114.555 95.7622 115.255 95.7622 116.055C95.7622 116.845 95.5922 117.545 95.2522 118.155C94.9122 118.755 94.4422 119.225 93.8422 119.565C93.2522 119.905 92.5822 120.075 91.8322 120.075ZM87.7672 120V108.87H88.8322V114.45L88.6822 116.04L88.7872 117.63V120H87.7672ZM91.7572 119.13C92.3172 119.13 92.8172 119.005 93.2572 118.755C93.6972 118.495 94.0472 118.135 94.3072 117.675C94.5672 117.205 94.6972 116.665 94.6972 116.055C94.6972 115.435 94.5672 114.895 94.3072 114.435C94.0472 113.975 93.6972 113.62 93.2572 113.37C92.8172 113.11 92.3172 112.98 91.7572 112.98C91.1972 112.98 90.6922 113.11 90.2422 113.37C89.8022 113.62 89.4522 113.975 89.1922 114.435C88.9422 114.895 88.8172 115.435 88.8172 116.055C88.8172 116.665 88.9422 117.205 89.1922 117.675C89.4522 118.135 89.8022 118.495 90.2422 118.755C90.6922 119.005 91.1972 119.13 91.7572 119.13ZM101.278 120.075C100.458 120.075 99.7382 119.905 99.1182 119.565C98.4982 119.215 98.0132 118.74 97.6632 118.14C97.3132 117.53 97.1382 116.835 97.1382 116.055C97.1382 115.275 97.3032 114.585 97.6332 113.985C97.9732 113.385 98.4332 112.915 99.0132 112.575C99.6032 112.225 100.263 112.05 100.993 112.05C101.733 112.05 102.388 112.22 102.958 112.56C103.538 112.89 103.993 113.36 104.323 113.97C104.653 114.57 104.818 115.265 104.818 116.055C104.818 116.105 104.813 116.16 104.803 116.22C104.803 116.27 104.803 116.325 104.803 116.385H97.9482V115.59H104.233L103.813 115.905C103.813 115.335 103.688 114.83 103.438 114.39C103.198 113.94 102.868 113.59 102.448 113.34C102.028 113.09 101.543 112.965 100.993 112.965C100.453 112.965 99.9682 113.09 99.5382 113.34C99.1082 113.59 98.7732 113.94 98.5332 114.39C98.2932 114.84 98.1732 115.355 98.1732 115.935V116.1C98.1732 116.7 98.3032 117.23 98.5632 117.69C98.8332 118.14 99.2032 118.495 99.6732 118.755C100.153 119.005 100.698 119.13 101.308 119.13C101.788 119.13 102.233 119.045 102.643 118.875C103.063 118.705 103.423 118.445 103.723 118.095L104.323 118.785C103.973 119.205 103.533 119.525 103.003 119.745C102.483 119.965 101.908 120.075 101.278 120.075Z" fill="white"/>
<path d="M51 93V57C51 53.134 54.134 50 58 50H93.5" stroke="white" stroke-opacity="0.6" stroke-width="2"/>
<path d="M47 89V55C47 50.0294 51.0294 46 56 46H89.5" stroke="white" stroke-opacity="0.6" stroke-width="2"/>
<path fill-rule="evenodd" clip-rule="evenodd" d="M96 57.75C96 54.9886 93.7614 52.75 91 52.75H58.75C55.9886 52.75 53.75 54.9886 53.75 57.75V90C53.75 92.7614 55.9886 95 58.75 95H91C93.7614 95 96 92.7614 96 90V57.75ZM68.4919 62.4216C68.8696 62.0094 69.3862 61.7614 69.9359 61.7282L83.9655 60.8788C84.2591 60.8611 84.5531 60.9053 84.8295 61.0088C85.1059 61.1122 85.3588 61.2727 85.5727 61.4803C85.7867 61.688 85.9571 61.9384 86.0736 62.2163C86.19 62.4941 86.2501 62.7936 86.25 63.0962V81.2777C86.25 81.2806 86.248 81.2832 86.2451 81.2838C86.2423 81.2845 86.2403 81.287 86.2402 81.2899C86.238 81.4692 86.2314 81.6508 86.1993 81.8379C85.8842 83.6777 84.1792 85.1689 82.3911 85.1689H79.1537C77.3656 85.1689 76.1721 83.6777 76.4872 81.8379C76.8023 79.998 78.5073 78.5068 80.2954 78.5068C82.3921 78.5068 84.0918 76.8071 84.0918 74.7105V68.6024C84.0918 68.4494 84.061 68.2981 84.0015 68.1578C83.9419 68.0176 83.8548 67.8916 83.7457 67.7877C83.6366 67.6837 83.5078 67.6041 83.3673 67.5538C83.2269 67.5035 83.0778 67.4836 82.9296 67.4954L71.0593 68.4348C70.7883 68.4563 70.5351 68.5823 70.3505 68.7875C70.1658 68.9927 70.0632 69.2621 70.0632 69.5418V84.6087C70.0632 84.6117 70.0612 84.6142 70.0583 84.6149C70.0555 84.6155 70.0535 84.618 70.0535 84.6209C70.0512 84.8003 70.0446 84.9819 70.0125 85.1689C69.6974 87.0088 67.9924 88.5 66.2043 88.5H62.967C61.1789 88.5 59.9854 87.0088 60.3005 85.1689C60.6156 83.3291 62.3206 81.8379 64.1087 81.8379C66.2047 81.8379 67.9039 80.1387 67.9039 78.0426V63.9456C67.9038 63.379 68.1141 62.8339 68.4919 62.4216Z" fill="white" fill-opacity="0.6"/>
<defs>
<filter id="filter0_b_404_2" x="-0.501099" y="-7.9993" width="73.2601" height="73.2601" filterUnits="userSpaceOnUse" color-interpolation-filters="sRGB">
<feFlood flood-opacity="0" result="BackgroundImageFix"/>
<feGaussianBlur in="BackgroundImageFix" stdDeviation="4"/>
<feComposite in2="SourceAlpha" operator="in" result="effect1_backgroundBlur_404_2"/>
<feBlend mode="normal" in="SourceGraphic" in2="effect1_backgroundBlur_404_2" result="shape"/>
</filter>
<filter id="filter1_b_404_2" x="-8" y="0.872681" width="157" height="157.129" filterUnits="userSpaceOnUse" color-interpolation-filters="sRGB">
<feFlood flood-opacity="0" result="BackgroundImageFix"/>
<feGaussianBlur in="BackgroundImageFix" stdDeviation="4"/>
<feComposite in2="SourceAlpha" operator="in" result="effect1_backgroundBlur_404_2"/>
<feBlend mode="normal" in="SourceGraphic" in2="effect1_backgroundBlur_404_2" result="shape"/>
</filter>
<linearGradient id="paint0_linear_404_2" x1="93.5491" y1="57.2582" x2="93.5491" y2="-4.54936e-08" gradientUnits="userSpaceOnUse">
<stop stop-color="#059DC0"/>
<stop offset="1" stop-color="#00ECFF"/>
</linearGradient>
<linearGradient id="paint1_linear_404_2" x1="70.9029" y1="150.002" x2="70.9029" y2="8.87268" gradientUnits="userSpaceOnUse">
<stop stop-color="#059DC0"/>
<stop offset="1" stop-color="#00ECFF"/>
</linearGradient>
</defs>
</svg>
